<svg xmlns="http://www.w3.org/2000/svg" width="864" height="576" viewBox="0 0 864 576"><defs><linearGradient id="d" x1="0" x2="1"><stop stop-color="#47251d"/><stop offset=".5" stop-color="#7b4833"/><stop offset="1" stop-color="#271813"/></linearGradient></defs><g stroke="#ffd19b" stroke-width="7" stroke-linejoin="round"><path d="M432 101v384M295 288h274" fill="none" stroke="#8b6759" stroke-width="22"/><rect x="365" y="223" width="134" height="130" rx="22" fill="url(#d)"/><circle cx="432" cy="288" r="32" fill="#ffad55"/><path d="M93 123c138 6 229 69 259 184-119 23-218-12-293-103z" fill="#4f2c23"/><path d="M771 123c-138 6-229 69-259 184 119 23 218-12 293-103z" fill="#4f2c23"/><path d="M171 190l181 92m341-92l-181 92" fill="none" stroke="#ffb363" stroke-width="14"/><circle cx="171" cy="190" r="15" fill="#fff0a4"/><circle cx="693" cy="190" r="15" fill="#fff0a4"/><path d="M215 405h434" fill="none" stroke="#795c52" stroke-width="18"/><g fill="#d16a3d" stroke="#ffd28d" stroke-width="4"><rect x="222" y="380" width="82" height="50" rx="8"/><rect x="323" y="380" width="82" height="50" rx="8"/><rect x="459" y="380" width="82" height="50" rx="8"/><rect x="560" y="380" width="82" height="50" rx="8"/></g><path d="M432 101l-37-50m37 50l37-50" fill="none" stroke="#ffc36b" stroke-width="12"/><circle cx="432" cy="74" r="10" fill="#fff1aa"/></g></svg>