<svg xmlns="http://www.w3.org/2000/svg" width="512" height="512" viewBox="0 0 512 512"><defs><radialGradient id="g" cx="35%" cy="28%"><stop offset="0" stop-color="#7e8794"/><stop offset=".62" stop-color="#283342"/><stop offset="1" stop-color="#07101b"/></radialGradient><linearGradient id="l" x1="0" x2="1"><stop stop-color="#7e8794"/><stop offset="1" stop-color="#283342"/></linearGradient><clipPath id="c"><circle cx="256" cy="256" r="188"/></clipPath></defs><g fill="url(#g)" stroke="#9bcfff" stroke-width="5"><path d="M76 246l38-71 76-18 54 49-13 72-72 34-67-23z"/><path d="M298 124l52-43 72 16 28 65-42 55-76-5-39-47z"/><path d="M291 321l54-58 76 15 31 66-47 67-82-11z"/><path d="M101 381l38-38 54 10 23 50-34 44-59-8z"/></g><ellipse cx="256" cy="256" rx="230" ry="104" fill="none" stroke="#9bcfff" stroke-width="4" opacity=".22"/></svg>
